# xmcd CD database file
#
# Track frame offsets:
#	150
#	24490
#	42881
#	57740
#	79854
#	99161
#	114489
#	127788
#	150372
#	168423
#
# Disc length: 2401 seconds
#
# Revision: 0
# Processed by: cddbd v1.5.2PL0 Copyright (c) Steve Scherf et al.
# Submitted via: CDex 1.79
#
DISCID=6f095f0a
DTITLE=Little A and The Allnighters (Alex Woodson) - Special Project
DYEAR=2010
DGENRE=Blues
TTITLE0=Low Down Dog (Smiley Lewis)
TTITLE1=Mellow Down Easy (Walter Jacobs)
TTITLE2=Off The Wall (Walter Jacobs)
TTITLE3=Saturday Night Blues (William Clarke)
TTITLE4=Sweet Dough Baker (Racy Thomas)
TTITLE5=Ain't Gonna Do It (Smiley Lewis)
TTITLE6=Chicken Shack (Amos Milburn)
TTITLE7=Left Me With A Broken Heart (Jimmy Rogers)
TTITLE8=Hands Off (P Bowman)
TTITLE9=A C Boogie (Anthony Contreras)
EXTD=YEAR: 2010
EXTT0=
EXTT1=
EXTT2=
EXTT3=
EXTT4=
EXTT5=
EXTT6=
EXTT7=
EXTT8=
EXTT9=
PLAYORDER=
